<svg viewBox="0 0 909 1286" version="1.1" xmlns="http://www.w3.org/2000/svg">
<defs>
<clipPath id="c0_6"><path d="M149.4 56.9V54.7H784.1v2.2Z"/></clipPath>
<clipPath id="c1_6"><path d="M149.4 379.2V377H784.1v2.2Z"/></clipPath>
<clipPath id="c2_6"><path d="M783.4 379.2V54.7h2.2V379.2Z"/></clipPath>
<style>
.g0_6{fill:#999;}
.g1_6{fill:none;stroke:#FFF;stroke-width:1.145;stroke-miterlimit:10;}
</style>
</defs>
<path clip-path="url(#c0_6)" d="M150.1 55H784.9V379.3H150.1V55Z" class="g0_6"/>
<path clip-path="url(#c1_6)" d="M150.1 55H784.9V379.3H150.1V55Z" class="g0_6"/>
<path clip-path="url(#c2_6)" d="M150.1 55H784.9V379.3H150.1V55Z" class="g0_6"/>
<path d="M444 468.6c0 3.7-1.3 6.8-3.8 9.4c-2.6 2.5-5.7 3.8-9.4 3.8c-3.6 0-6.7-1.3-9.3-3.8c-2.6-2.6-3.8-5.7-3.8-9.4c0-3.6 1.2-6.7 3.8-9.3c2.6-2.5 5.7-3.8 9.3-3.8c3.7 0 6.8 1.3 9.4 3.8c2.5 2.6 3.8 5.7 3.8 9.3Zm36.7 0c0 3.7-1.3 6.8-3.9 9.4c-2.6 2.5-5.7 3.8-9.3 3.8c-3.6 0-6.7-1.3-9.3-3.8c-2.6-2.6-3.9-5.7-3.9-9.4c0-3.6 1.3-6.7 3.9-9.3c2.6-2.5 5.7-3.8 9.3-3.8c3.6 0 6.7 1.3 9.3 3.8c2.6 2.6 3.9 5.7 3.9 9.3Zm36.6 0c0 3.7-1.2 6.8-3.8 9.4c-2.6 2.5-5.7 3.8-9.3 3.8c-3.7 0-6.8-1.3-9.4-3.8c-2.5-2.6-3.8-5.7-3.8-9.4c0-3.6 1.3-6.7 3.8-9.3c2.6-2.5 5.7-3.8 9.4-3.8c3.6 0 6.7 1.3 9.3 3.8c2.6 2.6 3.8 5.7 3.8 9.3Z" class="g1_6"/>
</svg>