<svg viewBox="0 0 909 1286" version="1.1" xmlns="http://www.w3.org/2000/svg">
<defs>
<style>
.g0_9{fill:none;stroke:#FFF;stroke-width:1.145;stroke-miterlimit:10;}
</style>
</defs>
<path d="M193.1 547.7V520.2c0-1.4 .5-2.6 1.5-3.6c1-1 2.2-1.5 3.6-1.5H857.1c1.4 0 2.6 .5 3.6 1.5c1 1 1.5 2.2 1.5 3.6v27.5c0 1.4-.5 2.6-1.5 3.7c-1 1-2.2 1.5-3.6 1.5H198.2c-1.4 0-2.6-.5-3.6-1.5c-1-1.1-1.5-2.3-1.5-3.7Zm0 56.2V576.4c0-1.5 .5-2.7 1.5-3.7c1-1 2.2-1.5 3.6-1.5H857.1c1.4 0 2.6 .5 3.6 1.5c1 1 1.5 2.2 1.5 3.7v27.5c0 1.4-.5 2.6-1.5 3.6c-1 1-2.2 1.5-3.6 1.5H198.2c-1.4 0-2.6-.5-3.6-1.5c-1-1-1.5-2.2-1.5-3.6Zm0 56.1V632.5c0-1.4 .5-2.6 1.5-3.6c1-1.1 2.2-1.6 3.6-1.6H857.1c1.4 0 2.6 .5 3.6 1.6c1 1 1.5 2.2 1.5 3.6V660c0 1.4-.5 2.6-1.5 3.6c-1 1.1-2.2 1.6-3.6 1.6H198.2c-1.4 0-2.6-.5-3.6-1.6c-1-1-1.5-2.2-1.5-3.6Zm0 56.1V688.6c0-1.4 .5-2.6 1.5-3.6c1-1 2.2-1.5 3.6-1.5H857.1c1.4 0 2.6 .5 3.6 1.5c1 1 1.5 2.2 1.5 3.6v27.5c0 1.5-.5 2.7-1.5 3.7c-1 1-2.2 1.5-3.6 1.5H198.2c-1.4 0-2.6-.5-3.6-1.5c-1-1-1.5-2.2-1.5-3.7Zm0 56.2V744.8c0-1.4 .5-2.6 1.5-3.7c1-1 2.2-1.5 3.6-1.5H857.1c1.4 0 2.6 .5 3.6 1.5c1 1.1 1.5 2.3 1.5 3.7v27.5c0 1.4-.5 2.6-1.5 3.6c-1 1-2.2 1.5-3.6 1.5H198.2c-1.4 0-2.6-.5-3.6-1.5c-1-1-1.5-2.2-1.5-3.6Zm0 56.1V800.9c0-1.4 .5-2.6 1.5-3.6c1-1 2.2-1.5 3.6-1.5H857.1c1.4 0 2.6 .5 3.6 1.5c1 1 1.5 2.2 1.5 3.6v27.5c0 1.5-.5 2.7-1.5 3.7c-1 1-2.2 1.5-3.6 1.5H198.2c-1.4 0-2.6-.5-3.6-1.5c-1-1-1.5-2.2-1.5-3.7Zm0 56.2V857.1c0-1.4 .5-2.7 1.5-3.7c1-1 2.2-1.5 3.6-1.5H857.1c1.4 0 2.6 .5 3.6 1.5c1 1 1.5 2.3 1.5 3.7v27.5c0 1.4-.5 2.6-1.5 3.6c-1 1-2.2 1.5-3.6 1.5H198.2c-1.4 0-2.6-.5-3.6-1.5c-1-1-1.5-2.2-1.5-3.6Zm0 56.1V913.2c0-1.4 .5-2.6 1.5-3.6c1-1 2.2-1.5 3.6-1.5H857.1c1.4 0 2.6 .5 3.6 1.5c1 1 1.5 2.2 1.5 3.6v27.5c0 1.5-.5 2.7-1.5 3.7c-1 1-2.2 1.5-3.6 1.5H198.2c-1.4 0-2.6-.5-3.6-1.5c-1-1-1.5-2.2-1.5-3.7ZM72.8 1095.4v-126c0-1.4 .5-2.7 1.5-3.7c1-1 2.2-1.5 3.6-1.5H857.1c1.4 0 2.6 .5 3.6 1.5c1 1 1.5 2.3 1.5 3.7v126c0 1.4-.5 2.7-1.5 3.7c-1 1-2.2 1.5-3.6 1.5H77.9c-1.4 0-2.6-.5-3.6-1.5c-1-1-1.5-2.3-1.5-3.7Zm325.4 69.9v-32.1c0-1.9 .9-2.8 2.8-2.8H534c1.9 0 2.8 .9 2.8 2.8v32.1c0 1.9-.9 2.9-2.8 2.9H401c-1.9 0-2.8-1-2.8-2.9Z" class="g0_9"/>
</svg>